<?xml version="1.0" standalone="no"?>
<!DOCTYPE svg PUBLIC "-//W3C//DTD SVG 20010904//EN"
 "http://www.w3.org/TR/2001/REC-SVG-20010904/DTD/svg10.dtd">
<svg version="1.0" xmlns="http://www.w3.org/2000/svg"
 width="116.000000pt" height="116.000000pt" viewBox="0 0 116.000000 116.000000"
 preserveAspectRatio="xMidYMid meet">

<g transform="translate(0.000000,116.000000) scale(0.100000,-0.100000)"
fill="#000000" stroke="none">
<path d="M446 1134 c-198 -48 -368 -217 -421 -419 -65 -250 65 -534 299 -649
329 -163 721 15 811 369 19 75 19 213 0 285 -40 152 -164 306 -296 368 -126
60 -267 77 -393 46z m344 -219 l0 -65 -42 0 c-64 0 -85 -9 -98 -39 -6 -16 -10
-50 -8 -77 l3 -49 68 -3 67 -3 0 -32 c0 -18 -3 -49 -6 -69 l-6 -37 -62 -3 -61
-3 -3 -182 -2 -183 -59 0 c-97 0 -91 -12 -91 191 l0 179 -60 0 -60 0 0 70 0
70 60 0 60 0 0 55 c0 121 36 201 105 231 16 7 67 13 113 14 l82 0 0 -65z"/>
</g>
</svg>
